<?xml version="1.0" standalone="no"?>
<!DOCTYPE svg PUBLIC "-//W3C//DTD SVG 20010904//EN"
 "http://www.w3.org/TR/2001/REC-SVG-20010904/DTD/svg10.dtd">
<svg version="1.0" xmlns="http://www.w3.org/2000/svg"
 width="336.000000pt" height="336.000000pt" viewBox="0 0 336.000000 336.000000"
 preserveAspectRatio="xMidYMid meet">
<metadata>
Created by potrace 1.11, written by Peter Selinger 2001-2013
</metadata>
<g transform="translate(0.000000,336.000000) scale(0.100000,-0.100000)"
fill="#000000" stroke="none">
<path d="M1500 3322 c-51 -7 -96 -26 -151 -63 -137 -92 -213 -211 -258 -402
-20 -86 -13 -143 32 -235 l20 -42 -24 -28 c-13 -15 -27 -29 -30 -32 -17 -15
-138 -174 -181 -238 -106 -156 -241 -414 -289 -552 -33 -92 -34 -296 -2 -385
63 -177 114 -242 266 -339 69 -44 66 -56 -20 -76 -139 -30 -223 -143 -223
-296 0 -75 25 -130 79 -176 l41 -35 0 -136 c0 -134 -12 -199 -51 -269 -7 -15
-5 -18 13 -18 12 0 30 7 40 17 17 15 18 15 18 0 0 -15 16 -17 139 -17 l139 0
4 113 c3 117 18 169 50 175 28 5 49 -53 59 -157 4 -53 8 -104 9 -113 0 -17 37
-18 640 -18 l640 0 0 50 c0 28 4 50 8 50 5 0 19 -22 31 -50 l23 -50 159 0 159
0 -26 41 c-56 89 -108 222 -138 352 l-14 59 44 49 c62 70 77 109 78 204 0 100
-25 157 -104 235 -60 60 -118 93 -195 111 -27 7 -52 13 -54 15 -2 2 13 22 33
45 208 243 173 673 -88 1089 -145 232 -399 480 -564 551 -26 11 -32 19 -28 34
3 11 12 47 20 80 47 181 -22 370 -157 433 -44 20 -105 30 -147 24z m-82 -134
c-3 -7 -19 -18 -36 -25 -28 -12 -33 -11 -39 3 -7 20 13 34 50 34 18 0 27 -5
25 -12z m-131 -99 c-12 -22 -36 -49 -53 -59 -51 -32 -60 -60 -39 -119 15 -40
17 -60 9 -97 -12 -62 -30 -67 -44 -12 -27 99 25 253 106 317 38 30 47 16 21
-30z m-11 -100 c9 -16 -12 -33 -31 -25 -14 5 -15 9 -5 21 15 18 26 19 36 4z
m510 -687 c81 -42 108 -129 56 -181 -42 -43 -122 -61 -479 -111 -116 -16 -242
-13 -282 8 -41 20 -82 92 -78 137 8 101 293 177 642 171 81 -2 108 -6 141 -24z
m-865 -104 c-10 -20 -24 -44 -30 -54 -34 -61 -94 -202 -120 -281 -45 -138 -54
-197 -49 -334 5 -163 26 -209 146 -327 62 -62 81 -87 73 -95 -6 -6 -11 -19
-11 -29 0 -26 -16 -22 -71 18 -105 77 -171 175 -203 300 -40 157 -3 321 134
594 52 103 141 253 147 247 2 -3 -5 -20 -16 -39z m693 -624 c9 -69 7 -192 -3
-198 -5 -4 -30 -9 -55 -12 l-46 -7 0 115 c0 125 3 133 55 141 17 2 33 5 36 6
4 0 9 -20 13 -45z m-129 -94 c0 -108 -1 -115 -20 -115 -11 0 -29 15 -42 34
-19 28 -23 47 -23 111 0 42 3 80 7 84 4 4 23 6 43 4 l35 -3 0 -115z m-454
-433 c43 -54 44 -58 12 -46 -78 31 -74 26 -61 54 6 14 14 25 17 25 3 0 18 -15
32 -33z m93 -583 c17 -7 22 -59 6 -69 -16 -10 -60 6 -71 27 -21 39 15 61 65
42z m-314 -353 c-19 -70 -27 -45 -11 32 13 56 17 65 19 40 2 -17 -2 -50 -8
-72z"/>
</g>
</svg>
